# xmcd CD database file
#
# Track frame offsets:
#	150
#	21310
#	41907
#	57227
#	76217
#	92552
#	112832
#	134510
#	154234
#	165187
#
# Disc length: 2454 seconds
#
# Revision: 1
# Processed by: cddbd v1.5.1PL2 Copyright (c) Steve Scherf et al.
# Submitted via: CDex 1.60beta1
#
DISCID=7509940a
DTITLE=Ene - Tibiritabara
DYEAR=1998
DGENRE=Salsa
TTITLE0=Corazon Partio
TTITLE1=Total Total
TTITLE2=Cualquiera Resbala Y Cae
TTITLE3=Soy Rebelde
TTITLE4=Tibiritabara
TTITLE5=Linda Calenita
TTITLE6=Amandote
TTITLE7=San Antonio
TTITLE8=Sera Tu Condena
TTITLE9=Mr. Trumpet Man
EXTD=YEAR: 1998
EXTT0=
EXTT1=
EXTT2=
EXTT3=
EXTT4=
EXTT5=
EXTT6=
EXTT7=
EXTT8=
EXTT9=
PLAYORDER=
